<svg xmlns="http://www.w3.org/2000/svg" width="24px" height="24px" viewBox="0 0 24 24" fill="#4076d4"><path d="M12 2C6.5 2 2 6.5 2 12s4.5 10 10 10 10-4.5 10-10S17.5 2 12 2zm0 15.1c-2.8 0-5.1-2.3-5.1-5.1S9.2 6.9 12 6.9s5.1 2.3 5.1 5.1-2.3 5.1-5.1 5.1zm6-7.5l1.7-1a8.08 8.08 0 0 1 0 6.8l-1.7-1c.6-1.6.6-3.3 0-4.8zm.8-2.5l-1.7.9c-1-1.3-2.6-2.2-4.2-2.4V3.7a8.07 8.07 0 0 1 5.9 3.4zm-7.7-3.4v1.9C9.4 5.8 7.9 6.7 6.9 8L5.2 7c1.4-1.9 3.6-3.1 5.9-3.3zM4.3 8.6l1.7 1c-.6 1.6-.6 3.3 0 4.9l-1.7 1c-.9-2.2-.9-4.7 0-6.9zm.9 8.4l1.7-1c1 1.3 2.6 2.2 4.2 2.4v1.9c-2.3-.2-4.5-1.4-5.9-3.3zm7.7 3.4v-2c1.7-.2 3.2-1.1 4.2-2.4l1.6 1c-1.3 1.9-3.5 3.1-5.8 3.4zm.3-9.6l2.2 1.2-2.2 1.2-1.2 2.3-1.2-2.2L8.5 12l2.2-1.2L12 8.5l1.2 2.3z"></path></svg>