<svg viewBox="0 0 20 20" fill="none" xmlns="http://www.w3.org/2000/svg">
<path d="M4.24284 16.4843L4.46983 16.0388L4.24284 16.4843ZM3.51466 15.756L3.06916 15.983L3.51466 15.756ZM16.4849 15.756L16.0394 15.529L16.4849 15.756ZM15.7562 16.4843L15.5292 16.0388L15.7562 16.4843ZM15.7562 3.51434L15.9832 3.06883L15.7562 3.51434ZM16.4849 4.24272L16.0394 4.46971L16.4849 4.24272ZM4.24284 3.51434L4.46983 3.95984L4.24284 3.51434ZM3.51466 4.24272L3.96017 4.46971L3.51466 4.24272ZM13.333 13.3327V12.8327C13.0569 12.8327 12.833 13.0565 12.833 13.3327H13.333ZM13.3347 13.3327L13.8345 13.3444C13.8377 13.2098 13.7864 13.0796 13.6923 12.9833C13.5983 12.887 13.4693 12.8327 13.3347 12.8327V13.3327ZM13.3346 13.3343L13.3227 13.8342C13.4553 13.8374 13.5837 13.7877 13.6797 13.6962C13.7757 13.6046 13.8314 13.4786 13.8345 13.346L13.3346 13.3343ZM13.333 13.3343H12.833C12.833 13.6058 13.0496 13.8277 13.321 13.8342L13.333 13.3343ZM9.99967 13.3327V12.8327C9.72353 12.8327 9.49967 13.0565 9.49967 13.3327H9.99967ZM10.0013 13.3327L10.5012 13.3444C10.5043 13.2098 10.4531 13.0796 10.359 12.9833C10.2649 12.887 10.136 12.8327 10.0013 12.8327V13.3327ZM10.0013 13.3343L9.98934 13.8342C10.122 13.8374 10.2504 13.7877 10.3464 13.6962C10.4424 13.6046 10.4981 13.4786 10.5012 13.346L10.0013 13.3343ZM9.99967 13.3343H9.49967C9.49967 13.6058 9.71631 13.8277 9.98771 13.8342L9.99967 13.3343ZM6.66634 13.3327V12.8327C6.3902 12.8327 6.16634 13.0565 6.16634 13.3327H6.66634ZM6.66801 13.3327L7.16787 13.3444C7.17102 13.2098 7.11975 13.0796 7.02567 12.9833C6.93159 12.887 6.80264 12.8327 6.66801 12.8327V13.3327ZM6.66797 13.3343L6.65601 13.8342C6.78863 13.8374 6.91707 13.7877 7.01307 13.6962C7.10906 13.6046 7.16473 13.4786 7.16783 13.346L6.66797 13.3343ZM6.66634 13.3343H6.16634C6.16634 13.6058 6.38298 13.8277 6.65438 13.8342L6.66634 13.3343ZM13.3346 9.99935H13.8346C13.8346 9.72321 13.6108 9.49935 13.3346 9.49935V9.99935ZM13.3346 10.001L13.3227 10.5009C13.4573 10.5041 13.5876 10.4529 13.6839 10.3588C13.7803 10.2647 13.8346 10.1357 13.8346 10.001H13.3346ZM13.333 10.001H12.833C12.833 10.2725 13.0496 10.4943 13.321 10.5008L13.333 10.001ZM13.333 9.99935V9.49935C13.0569 9.49935 12.833 9.72321 12.833 9.99935H13.333ZM9.99967 9.99935V9.49935C9.72353 9.49935 9.49967 9.72321 9.49967 9.99935H9.99967ZM10.0013 9.99935L10.5012 10.011C10.5043 9.87643 10.4531 9.74625 10.359 9.64995C10.2649 9.55364 10.136 9.49935 10.0013 9.49935V9.99935ZM10.0013 10.001L9.98934 10.5009C10.122 10.504 10.2504 10.4544 10.3464 10.3628C10.4424 10.2713 10.4981 10.1453 10.5012 10.0127L10.0013 10.001ZM9.99967 10.001H9.49967C9.49967 10.2725 9.71631 10.4943 9.98771 10.5008L9.99967 10.001ZM6.66634 9.99935V9.49935C6.3902 9.49935 6.16634 9.72321 6.16634 9.99935H6.66634ZM6.66801 9.99935L7.16787 10.011C7.17102 9.87643 7.11975 9.74625 7.02567 9.64995C6.93159 9.55364 6.80264 9.49935 6.66801 9.49935V9.99935ZM6.66797 10.001L6.65601 10.5009C6.78863 10.504 6.91707 10.4544 7.01307 10.3628C7.10906 10.2713 7.16473 10.1453 7.16783 10.0127L6.66797 10.001ZM6.66634 10.001H6.16634C6.16634 10.2725 6.38298 10.4943 6.65438 10.5008L6.66634 10.001ZM3.33301 6.16602C3.05687 6.16602 2.83301 6.38987 2.83301 6.66602C2.83301 6.94216 3.05687 7.16602 3.33301 7.16602V6.16602ZM16.6663 7.16602C16.9425 7.16602 17.1663 6.94216 17.1663 6.66602C17.1663 6.38987 16.9425 6.16602 16.6663 6.16602V7.16602ZM13.833 1.66602C13.833 1.38987 13.6091 1.16602 13.333 1.16602C13.0569 1.16602 12.833 1.38987 12.833 1.66602H13.833ZM12.833 3.33268C12.833 3.60882 13.0569 3.83268 13.333 3.83268C13.6091 3.83268 13.833 3.60882 13.833 3.33268H12.833ZM7.16634 1.66602C7.16634 1.38987 6.94248 1.16602 6.66634 1.16602C6.3902 1.16602 6.16634 1.38987 6.16634 1.66602H7.16634ZM6.16634 3.33268C6.16634 3.60882 6.3902 3.83268 6.66634 3.83268C6.94248 3.83268 7.16634 3.60882 7.16634 3.33268H6.16634ZM5.99984 3.83268H13.9998V2.83268H5.99984V3.83268ZM16.1663 5.99931V13.9993H17.1663V5.99931H16.1663ZM13.9998 16.166H5.99984V17.166H13.9998V16.166ZM3.83301 13.9993V5.99931H2.83301V13.9993H3.83301ZM5.99984 16.166C5.52489 16.166 5.19864 16.1656 4.94571 16.145C4.69859 16.1248 4.56584 16.0877 4.46983 16.0388L4.01584 16.9298C4.27636 17.0626 4.55539 17.1164 4.86429 17.1416C5.16737 17.1664 5.54137 17.166 5.99984 17.166V16.166ZM2.83301 13.9993C2.83301 14.4578 2.83262 14.8317 2.85738 15.1347C2.88261 15.4436 2.93643 15.7225 3.06916 15.983L3.96017 15.529C3.91124 15.433 3.87424 15.3003 3.85405 15.0533C3.8334 14.8004 3.83301 14.4743 3.83301 13.9993H2.83301ZM4.46983 16.0388C4.25039 15.927 4.07206 15.7486 3.96017 15.529L3.06916 15.983C3.27685 16.3906 3.60808 16.7221 4.01584 16.9298L4.46983 16.0388ZM16.1663 13.9993C16.1663 14.4743 16.166 14.8005 16.1454 15.0534C16.1252 15.3004 16.0883 15.4331 16.0394 15.529L16.9304 15.983C17.0631 15.7225 17.1169 15.4435 17.1421 15.1346C17.1668 14.8317 17.1663 14.4577 17.1663 13.9993H16.1663ZM13.9998 17.166C14.4583 17.166 14.8321 17.1664 15.1351 17.1416C15.4439 17.1164 15.7227 17.0625 15.9832 16.9298L15.5292 16.0388C15.4331 16.0878 15.3005 16.1248 15.0536 16.145C14.8009 16.1656 14.4748 16.166 13.9998 16.166V17.166ZM16.0394 15.529C15.9276 15.7483 15.7489 15.9268 15.5292 16.0388L15.9832 16.9298C16.3906 16.7222 16.7225 16.391 16.9304 15.983L16.0394 15.529ZM13.9998 3.83268C14.4748 3.83268 14.8009 3.83307 15.0536 3.85373C15.3005 3.8739 15.4331 3.9109 15.5292 3.95984L15.9832 3.06883C15.7227 2.93612 15.4439 2.88229 15.1351 2.85705C14.8321 2.83229 14.4583 2.83268 13.9998 2.83268V3.83268ZM17.1663 5.99931C17.1663 5.5409 17.1668 5.16699 17.1421 4.86404C17.1169 4.55523 17.0631 4.27627 16.9304 4.01572L16.0394 4.46971C16.0883 4.56569 16.1252 4.69831 16.1454 4.94531C16.166 5.19817 16.1663 5.5243 16.1663 5.99931H17.1663ZM15.5292 3.95984C15.7489 4.0718 15.9276 4.25039 16.0394 4.46971L16.9304 4.01572C16.7225 3.60783 16.3906 3.27646 15.9832 3.06883L15.5292 3.95984ZM5.99984 2.83268C5.54137 2.83268 5.16738 2.83229 4.8643 2.85705C4.55541 2.88228 4.27637 2.93609 4.01584 3.06883L4.46983 3.95984C4.56583 3.91093 4.69858 3.87391 4.9457 3.85373C5.19864 3.83307 5.52488 3.83268 5.99984 3.83268V2.83268ZM3.83301 5.99931C3.83301 5.52435 3.8334 5.19821 3.85405 4.94539C3.87423 4.69841 3.91124 4.56574 3.96017 4.46971L3.06916 4.01572C2.93643 4.27621 2.88261 4.55512 2.85738 4.86396C2.83262 5.16695 2.83301 5.54085 2.83301 5.99931H3.83301ZM4.01584 3.06883C3.60803 3.27663 3.27682 3.60817 3.06916 4.01572L3.96017 4.46971C4.07208 4.25006 4.25044 4.07163 4.46983 3.95984L4.01584 3.06883ZM13.333 13.8327H13.3347V12.8327H13.333V13.8327ZM12.8348 13.321L12.8348 13.3227L13.8345 13.346L13.8345 13.3444L12.8348 13.321ZM13.3466 12.8345L13.345 12.8345L13.321 13.8342L13.3227 13.8342L13.3466 12.8345ZM13.833 13.3343V13.3327H12.833V13.3343H13.833ZM9.99967 13.8327H10.0013V12.8327H9.99967V13.8327ZM9.50148 13.321L9.50144 13.3227L10.5012 13.346L10.5012 13.3444L9.50148 13.321ZM10.0133 12.8345L10.0116 12.8345L9.98771 13.8342L9.98934 13.8342L10.0133 12.8345ZM10.4997 13.3343V13.3327H9.49967V13.3343H10.4997ZM6.66634 13.8327H6.66801V12.8327H6.66634V13.8327ZM6.16814 13.321L6.16811 13.3227L7.16783 13.346L7.16787 13.3444L6.16814 13.321ZM6.67993 12.8345L6.6783 12.8345L6.65438 13.8342L6.65601 13.8342L6.67993 12.8345ZM7.16634 13.3343V13.3327H6.16634V13.3343H7.16634ZM12.8346 9.99935V10.001H13.8346V9.99935H12.8346ZM13.3466 9.50116L13.345 9.50112L13.321 10.5008L13.3227 10.5009L13.3466 9.50116ZM13.833 10.001V9.99935H12.833V10.001H13.833ZM13.333 10.4993H13.3346V9.49935H13.333V10.4993ZM9.99967 10.4993H10.0013V9.49935H9.99967V10.4993ZM9.50148 9.98767L9.50144 9.98933L10.5012 10.0127L10.5012 10.011L9.50148 9.98767ZM10.0133 9.50116L10.0116 9.50112L9.98771 10.5008L9.98934 10.5009L10.0133 9.50116ZM10.4997 10.001V9.99935H9.49967V10.001H10.4997ZM6.66634 10.4993H6.66801V9.49935H6.66634V10.4993ZM6.16814 9.98767L6.16811 9.98933L7.16783 10.0127L7.16787 10.011L6.16814 9.98767ZM6.67993 9.50116L6.6783 9.50112L6.65438 10.5008L6.65601 10.5009L6.67993 9.50116ZM7.16634 10.001V9.99935H6.16634V10.001H7.16634ZM3.33301 7.16602H16.6663V6.16602H3.33301V7.16602ZM12.833 1.66602V3.33268H13.833V1.66602H12.833ZM6.16634 1.66602V3.33268H7.16634V1.66602H6.16634Z" fill="#f5c20a"></path>
</svg>