<svg xmlns="http://www.w3.org/2000/svg" width="24px" height="24px" viewBox="0 0 24 24" fill="#fff"><mask id="A" maskUnits="userSpaceOnUse" x="2" y="2" width="20" height="20"><path d="M22 2H2V22H22V2Z" fill="#fff"></path></mask><g mask="url(#A)"><path fill-rule="evenodd" d="M13.675 17h-3.331c-.146 0-.283-.078-.361-.205-.068-.127-.068-.283 0-.41l.781-1.357v-.088c-.176.039-.361.058-.557.058A2.21 2.21 0 0 1 8 12.791c0-1.963 1.885-3.848 3.712-5.674.078-.078.186-.117.293-.117s.215.039.283.117C14.115 8.943 16 10.828 16 12.791a2.21 2.21 0 0 1-2.208 2.207 2.5 2.5 0 0 1-.557-.058v.088l.781 1.357c.068.127.068.283 0 .41-.059.127-.205.205-.352.205h.01zm-1.67-12.979a7.99 7.99 0 0 0-7.984 7.984 7.99 7.99 0 0 0 7.984 7.984 7.99 7.99 0 0 0 7.984-7.984c0-4.396-3.588-7.984-7.984-7.984zm0 17.979C6.487 22 2 17.513 2 12.005S6.487 2 12.005 2 22.01 6.487 22.01 12.005 17.523 22.01 12.005 22.01V22z"></path></g></svg>