<svg width="431" height="480" viewBox="0 0 431 480" fill="none" xmlns="http://www.w3.org/2000/svg">
<path d="M7.97647e-07 150.63V329.415C-0.00173128 340.159 2.81746 350.713 8.1736 360.015C13.5297 369.318 21.2338 377.04 30.5099 382.404L184.875 471.796C194.151 477.17 204.673 480 215.385 480C226.096 480 236.618 477.17 245.895 471.796L400.26 382.404C409.536 377.04 417.239 369.318 422.596 360.015C427.952 350.713 430.771 340.159 430.769 329.415V150.63C430.77 139.881 427.95 129.321 422.595 120.011C417.239 110.702 409.536 102.971 400.26 97.5962L245.895 8.20386C236.618 2.82935 226.096 0 215.385 0C204.673 0 194.151 2.82935 184.875 8.20386L30.5099 97.5962C21.2334 102.971 13.53 110.702 8.17443 120.011C2.81882 129.321 -0.000492197 139.881 7.97647e-07 150.63Z" fill="#07182B"/>
<path d="M347.509 258.975V258.455C346.926 249.551 344.953 240.795 341.663 232.508C338.439 223.859 334.269 215.901 330.314 207.685C329.86 206.983 329.619 206.165 329.619 205.328C329.619 204.492 329.86 203.673 330.314 202.971C334.158 196.421 336.439 189.064 336.979 181.477C337.518 173.89 336.3 166.281 333.421 159.248C330.542 152.215 326.08 145.949 320.386 140.944C314.692 135.94 307.922 132.331 300.608 130.404C292.077 128.042 283.07 128.045 274.541 130.413C266.012 132.78 258.278 137.425 252.159 143.854C251.468 144.753 250.474 145.368 249.364 145.584C248.81 145.575 248.261 145.488 247.731 145.324C225.651 139.723 202.533 139.723 180.453 145.324C179.938 145.488 179.402 145.576 178.862 145.584C177.735 145.382 176.724 144.765 176.025 143.854C169.908 137.421 162.175 132.774 153.645 130.406C145.114 128.038 136.106 128.037 127.576 130.404H127.361C120.052 132.339 113.287 135.951 107.599 140.958C101.91 145.964 97.4521 152.228 94.5741 159.258C91.6962 166.289 90.4766 173.895 91.0112 181.479C91.5458 189.063 93.8198 196.419 97.6551 202.971C98.1084 203.673 98.3496 204.492 98.3496 205.328C98.3496 206.165 98.1084 206.983 97.6551 207.685C93.7 215.901 89.573 224.032 86.3058 232.508C83.0383 240.802 81.0662 249.555 80.4593 258.455V258.975C79.4578 266.73 79.1699 274.562 79.5995 282.371C80.6611 298.355 86.8838 313.554 97.3211 325.654C107.758 337.753 121.839 346.092 137.42 349.402C143.17 350.54 149.014 351.12 154.874 351.132C174.649 351.132 194.424 351.132 214.199 351.132C233.974 351.132 253.75 351.132 273.525 351.132C279.298 351.104 285.056 350.524 290.72 349.402C306.31 346.1 320.4 337.765 330.845 325.665C341.291 313.564 347.52 298.361 348.584 282.371C348.978 274.56 348.676 266.731 347.681 258.975M182.86 269.959C182.86 275.694 180.595 281.194 176.564 285.249C172.533 289.304 167.066 291.582 161.365 291.582H142.794C138.498 291.634 134.285 290.389 130.698 288.009C127.112 285.628 124.318 282.221 122.675 278.228C121.032 274.234 120.617 269.836 121.483 265.603C122.349 261.369 124.456 257.494 127.533 254.477L146.104 235.838C149.106 232.758 152.954 230.652 157.155 229.79C161.356 228.927 165.717 229.349 169.679 230.999C173.64 232.65 177.019 235.454 179.384 239.052C181.748 242.65 182.989 246.878 182.946 251.19L182.86 269.959ZM243.475 311.648C235.802 319.352 225.405 323.678 214.565 323.678C203.724 323.678 193.327 319.352 185.654 311.648C184.885 310.977 184.342 310.081 184.102 309.086C183.862 308.09 183.937 307.044 184.315 306.093C184.693 305.141 185.357 304.333 186.213 303.778C187.069 303.224 188.076 302.951 189.094 302.999H239.821C240.838 302.951 241.845 303.224 242.701 303.778C243.558 304.333 244.221 305.141 244.6 306.093C244.978 307.044 245.052 308.09 244.812 309.086C244.572 310.081 244.029 310.977 243.26 311.648M284.702 291.712H266.13C260.43 291.712 254.962 289.434 250.931 285.379C246.9 281.324 244.636 275.824 244.636 270.089V251.45C244.593 247.137 245.834 242.91 248.198 239.312C250.562 235.714 253.942 232.909 257.903 231.259C261.864 229.608 266.226 229.187 270.426 230.049C274.627 230.912 278.476 233.018 281.478 236.098L300.049 254.736C303.126 257.753 305.233 261.629 306.099 265.862C306.965 270.096 306.55 274.493 304.907 278.487C303.264 282.481 300.47 285.888 296.883 288.268C293.297 290.649 289.084 291.893 284.788 291.842" fill="#1FE88A"/>
</svg>
