<svg xmlns="http://www.w3.org/2000/svg" width="24px" height="24px" fill="#4076d4"><path d="M4.286 14.571A1.29 1.29 0 0 0 3 15.857v3.857A1.29 1.29 0 0 0 4.286 21h3.857a1.29 1.29 0 0 0 1.286-1.286 1.29 1.29 0 0 0-1.286-1.286H5.571v-2.571a1.29 1.29 0 0 0-1.286-1.286zm0-5.143a1.29 1.29 0 0 0 1.286-1.286V5.571h2.571a1.29 1.29 0 0 0 1.286-1.286A1.29 1.29 0 0 0 8.143 3H4.286A1.29 1.29 0 0 0 3 4.286v3.857a1.29 1.29 0 0 0 1.286 1.286zm14.143 9h-2.571a1.29 1.29 0 0 0-1.286 1.286A1.29 1.29 0 0 0 15.857 21h3.857A1.29 1.29 0 0 0 21 19.714v-3.857a1.29 1.29 0 0 0-1.286-1.286 1.29 1.29 0 0 0-1.286 1.286v2.571zM14.571 4.286a1.29 1.29 0 0 0 1.286 1.286h2.571v2.571a1.29 1.29 0 0 0 1.286 1.286A1.29 1.29 0 0 0 21 8.143V4.286A1.29 1.29 0 0 0 19.714 3h-3.857a1.29 1.29 0 0 0-1.286 1.286z"></path></svg>