<svg xmlns="http://www.w3.org/2000/svg" width="24px" height="24px" viewBox="0 0 24 24" fill="#4076d4"><path d="M5.982 11.512a6.07 6.07 0 0 1 .333-2.433 6.08 6.08 0 0 1 1.27-2.103c.562-.608 1.243-1.095 2-1.431a6.11 6.11 0 0 1 2.404-.526c1.411.004 2.775.508 3.848 1.423a5.93 5.93 0 0 1 2.008 3.571 7.88 7.88 0 0 1-4.137-1.221c-1.238-.784-2.232-1.897-2.87-3.214A8.16 8.16 0 0 1 9.15 9.148c-.846 1.034-1.934 1.846-3.168 2.364zm3.003.2c-.257 0-.509.076-.723.219a1.3 1.3 0 0 0-.479.583c-.099.237-.124.498-.074.75a1.3 1.3 0 0 0 1.022 1.02c.252.05.514.024.752-.074a1.3 1.3 0 0 0 .584-.478c.143-.213.219-.465.219-.721 0-.344-.137-.675-.381-.918s-.575-.38-.92-.38zm4.705 1.299c0 .257.076.508.219.721a1.3 1.3 0 0 0 .584.478c.238.098.5.124.752.074a1.3 1.3 0 0 0 1.023-1.02c.05-.252.024-.513-.074-.75a1.3 1.3 0 0 0-.479-.583c-.214-.143-.466-.219-.723-.219-.345 0-.676.137-.92.38s-.381.574-.381.918zm9.31.499a2.99 2.99 0 0 0-.553-1.725 3 3 0 0 0-1.449-1.092 8.98 8.98 0 0 0-2.833-6.243c-.898-.853-1.965-1.51-3.132-1.928a8.92 8.92 0 0 0-3.646-.499 9.15 9.15 0 0 0-5.847 2.749 9.11 9.11 0 0 0-2.562 5.921 3 3 0 0 0-1.572 1.312 2.99 2.99 0 0 0-.363 2.013c.119.693.479 1.321 1.015 1.776s1.217.707 1.921.713a1 1 0 0 0 1.001-.999v-4.225c-.037-1.812.617-3.571 1.831-4.919s2.896-2.186 4.706-2.343a7.02 7.02 0 0 1 2.826.391 7.01 7.01 0 0 1 2.436 1.483 6.99 6.99 0 0 1 1.641 2.329 6.98 6.98 0 0 1 .575 2.789v2.497a6.47 6.47 0 0 1-.984 3.425 6.49 6.49 0 0 1-2.649 2.389 2 2 0 0 0-.728-.953c-.335-.236-.734-.363-1.144-.366h-1.001c-.531 0-1.04.21-1.416.585s-.586.883-.586 1.413.211 1.038.586 1.413.885.585 1.416.585h1.001c.893-.075 1.616-.33 2.129-.549s1.419-.64 2.478-1.569a8.5 8.5 0 0 0 2.36-3.425c.706-.109 1.349-.466 1.815-1.006s.724-1.228.727-1.941z"></path></svg>