<svg xmlns="http://www.w3.org/2000/svg" width="24px" height="24px" viewBox="0 0 24 24" fill="#fff"><mask id="A" maskUnits="userSpaceOnUse" x="2" y="2" width="20" height="20"><path d="M22 2H2V22H22V2Z" fill="#fff"></path></mask><g mask="url(#A)"><path d="M12.01 2C6.489 2 2 6.469 2 11.99S6.469 22 11.99 22 22 17.531 22 12.01v-.02c-.01-5.511-4.479-9.98-9.99-9.99zm1.613 3.707a5.93 5.93 0 0 0-1.172-.18V4.044c0-.351.311-.611.661-.571.17.02.341.05.511.08a.59.59 0 0 1 .461.752l-.461 1.413v-.01zm-3.998.261a7.06 7.06 0 0 0-1.062.541l-.872-1.202c-.21-.291-.11-.681.2-.852.15-.08.301-.16.461-.23.321-.15.701 0 .812.331l.461 1.413zM6.529 8.533c-.21.331-.391.691-.541 1.062l-1.413-.461c-.341-.11-.491-.491-.331-.812.07-.16.15-.311.24-.461.17-.311.571-.411.852-.2l1.202.872h-.01zm-1.002 3.878c.02.401.09.792.18 1.172l-1.413.461c-.341.11-.681-.11-.752-.461-.03-.17-.06-.341-.08-.511-.04-.351.22-.661.571-.661h1.483.01zm.832-.421c0-3.116 2.535-5.641 5.651-5.631 3.116 0 5.641 2.535 5.631 5.651a5.64 5.64 0 0 1-5.631 5.631A5.64 5.64 0 0 1 6.369 12h-.01v-.01zm4.048 6.283c.391.11.792.17 1.192.2v1.483c0 .351-.311.611-.661.571-.17-.02-.351-.05-.521-.08-.341-.07-.561-.411-.461-.741l.451-1.433zm3.998-.261c.371-.15.722-.331 1.062-.541l.872 1.202c.21.281.11.681-.2.852l-.451.24c-.321.15-.701 0-.812-.331l-.461-1.413-.01-.01zm3.076-2.565c.21-.331.391-.691.541-1.062l1.403.461c.341.11.491.491.341.812-.07.16-.15.311-.23.461-.17.311-.561.411-.852.2l-1.202-.872zm.992-3.878c-.02-.401-.08-.792-.18-1.182l1.413-.461c.341-.11.681.11.752.461a9.03 9.03 0 0 1 .08.511c.04.351-.22.661-.571.661h-1.493v.01zm-.19-5.401c.22.23.18.601-.07.792l-1.222.892c-.25-.301-.531-.591-.842-.842l.902-1.242a.51.51 0 0 1 .761-.07l.471.481v-.01zM6.92 16.098a6.92 6.92 0 0 0 .862.852l-.842 1.222c-.2.291-.611.321-.872.09l-.381-.361c-.25-.251-.23-.651.05-.872l1.182-.922v-.01z"></path></g><g><circle cx="12" cy="10" r="1"></circle><circle cx="14" cy="12" r="1"></circle><circle cx="12" cy="14" r="1"></circle><circle cx="10" cy="12" r="1"></circle></g></svg>