<svg xmlns="http://www.w3.org/2000/svg" xmlns:xlink="http://www.w3.org/1999/xlink" aria-hidden="true" role="img" class="iconify iconify--chaskibet text-theme-secondary h-5 w-5" width="1em" height="1em" viewBox="0 0 21 21"><defs><clipPath id="iconifyVue2"><path fill="#f5c20a" d="M.857 0h20v20h-20z"></path></clipPath></defs><g fill="none"><g clip-path="url(#iconifyVue2)"><path fill="#f5c20a" d="M8.551 9.597 7.994 4l-1.196.117.557 5.596zm6.804-.662-.557-5.597 3.812-.371.098.976-2.617.254.133 1.334 2.42-.236.097.976-2.42.235.133 1.337 2.627-.256.097.975zm-3.564-1.011-1.79-4.119-1.329.13 2.51 5.406 1.542-.15 1.393-5.787-1.326.13-.947 4.385zm-8.85 2.219-.557-5.596 1.197-.117.46 4.621 2.425-.236.097.976z"></path><path fill="#f5c20a" fill-rule="evenodd" d="M.866 4.896A1.55 1.55 0 0 1 2.26 3.2l16.32-1.67a1.56 1.56 0 0 1 1.715 1.378l.554 5.29a1.55 1.55 0 0 1-1.395 1.698l-16.319 1.67a1.56 1.56 0 0 1-1.716-1.378zm1.474-.928 16.32-1.67a.78.78 0 0 1 .858.689l.553 5.29a.775.775 0 0 1-.697.85l-16.32 1.67a.78.78 0 0 1-.857-.69l-.554-5.29a.775.775 0 0 1 .697-.85" clip-rule="evenodd"></path><path stroke="#f5c20a" stroke-linecap="round" stroke-linejoin="round" stroke-width="1.25" d="m16.313 11.889 2.05 1.875q.38.366.709.738a2.3 2.3 0 0 1 .11 2.908c-.492.65-1.39.8-2.036.312v.417l.417 1.25h-2.5l.416-1.25v-.417c-.641.446-1.556.322-2.035-.312a2.3 2.3 0 0 1 .11-2.908q.34-.384.71-.738a627 627 0 0 1 2.049-1.875"></path></g></g></svg>