<svg width="147" height="54" viewBox="0 0 147 54" fill="none" xmlns="http://www.w3.org/2000/svg">
<path d="M10.2351 25.6402L10.6884 23.0717H2.89218L0.912903 34.2523H4.02535L4.73547 30.2031H8.58825L9.04151 27.6346H5.20384L5.55135 25.6402H10.2351Z" fill="white"/>
<path d="M15.816 34.4034C19.8199 34.4034 22.8417 31.6082 22.8417 27.6799C22.8417 24.7941 20.8171 22.9206 17.4931 22.9206C13.4741 22.9206 10.407 25.7157 10.407 29.6139C10.407 32.5299 12.4618 34.4034 15.816 34.4034ZM16.0577 31.8349C14.5166 31.8349 13.595 30.8981 13.595 29.4023C13.595 27.3173 15.0908 25.4891 17.206 25.4891C18.732 25.4891 19.6386 26.4108 19.6386 27.8914C19.6386 29.9765 18.173 31.8349 16.0577 31.8349Z" fill="white"/>
<path d="M34.0809 26.2748C34.0809 24.3408 32.7362 23.0717 30.5454 23.0717H25.3933L23.414 34.2523H26.5264L27.1761 30.5959H28.5661L30.1073 34.2523H33.6579L31.6937 30.0218C33.1291 29.3268 34.0809 28.0425 34.0809 26.2748ZM28.0524 25.6402H29.9411C30.5756 25.6402 30.908 25.9877 30.908 26.592C30.908 27.3475 30.4397 28.0274 29.0496 28.0274H27.6294L28.0524 25.6402Z" fill="white"/>
<path d="M45.0714 23.0717H35.5226L35.0693 25.6402H38.2724L36.7464 34.2523H39.8588L41.3848 25.6402H44.6182L45.0714 23.0717Z" fill="white"/>
<path d="M49.6368 34.4034C52.6586 34.4034 54.94 32.6658 55.4386 29.8858L56.6473 23.0717H53.5349L52.3866 29.644C52.16 30.8981 51.1325 31.8348 49.9087 31.8348C48.8209 31.8348 48.1712 31.2305 48.1712 30.1578C48.1712 29.9764 48.2014 29.78 48.2316 29.5836L49.3799 23.0717H46.2675L45.1041 29.6743C45.0588 29.9764 45.0285 30.2635 45.0285 30.5355C45.0285 32.8471 46.7812 34.4034 49.6368 34.4034Z" fill="white"/>
<path d="M56.8484 34.2523H59.9609L60.9883 28.3145L66.2613 34.2523H68.1197L70.099 23.0717H66.9865L65.9742 29.0095L60.7012 23.0717H58.8277L56.8484 34.2523Z" fill="white"/>
<path d="M77.9932 34.2523H81.2719L78.6278 23.0717H75.742L69.1243 34.2523H72.4936L73.3548 32.7263H77.7061L77.9932 34.2523ZM74.7901 30.1577L76.5881 26.9547L77.2076 30.1577H74.7901Z" fill="white"/>
<path d="M83.6154 34.4034C85.353 34.4034 86.743 33.4364 87.0149 31.8348L88.5712 23.0717H85.9271L85.2094 27.1284L84.4917 31.1852C84.386 31.7744 83.9478 32.2126 83.3435 32.2126C82.9808 32.2126 82.588 32.0917 82.2405 31.7744L81.3642 33.3911C81.8326 34.0105 82.5427 34.4034 83.6154 34.4034Z" fill="#F5C20A"/>
<path d="M94.0031 34.4034C96.9493 34.4034 99.1855 32.6961 99.669 29.9764L100.893 23.0717H98.2487L97.0702 29.78C96.8134 31.1852 95.65 32.2126 94.2297 32.2126C92.9606 32.2126 92.2051 31.5176 92.2051 30.3239C92.2051 30.1426 92.2354 29.9311 92.2656 29.7347L93.4441 23.0717H90.8L89.6064 29.7951C89.5611 30.0973 89.5309 30.3844 89.5309 30.6563C89.5309 32.8925 91.2231 34.4034 94.0031 34.4034Z" fill="#F5C20A"/>
<path d="M110.811 25.2625L111.204 23.0717H103.242L101.263 34.2523H109.346L109.739 32.0615H104.315L104.723 29.6894H109.497L109.89 27.4986H105.115L105.508 25.2625H110.811Z" fill="#F5C20A"/>
<path d="M123.116 27.7555H117.858L117.465 29.9463H120.049C119.641 31.2909 118.326 32.2126 116.725 32.2126C115.078 32.2126 114.081 31.1701 114.081 29.5232C114.081 27.2418 115.727 25.1114 118.039 25.1114C118.961 25.1114 119.731 25.3229 120.275 25.7913L122.194 24.2502C121.303 23.4343 119.988 22.9206 118.235 22.9206C114.277 22.9206 111.376 25.8064 111.376 29.6894C111.376 32.545 113.34 34.4034 116.513 34.4034C119.882 34.4034 122.511 32.1673 122.98 28.8433C123.055 28.4202 123.085 28.103 123.116 27.7555Z" fill="#F5C20A"/>
<path d="M129.101 34.4034C133.06 34.4034 136.036 31.5327 136.036 27.6346C136.036 24.7639 134.057 22.9206 130.824 22.9206C126.85 22.9206 123.844 25.7762 123.844 29.6743C123.844 32.545 125.838 34.4034 129.101 34.4034ZM129.298 32.2126C127.591 32.2126 126.563 31.155 126.563 29.493C126.563 27.1662 128.225 25.1114 130.582 25.1114C132.289 25.1114 133.302 26.1539 133.302 27.8008C133.302 30.1276 131.655 32.2126 129.298 32.2126Z" fill="#F5C20A"/>
<path d="M140.557 34.4034C143.262 34.4034 145.483 32.8623 145.483 30.5808C145.483 28.8282 143.942 27.9368 142.4 27.4835L141.841 27.3324C140.92 27.0604 140.285 26.8338 140.285 26.2748C140.285 25.5798 141.207 25.1114 142.28 25.1114C143.201 25.1114 144.017 25.3682 144.757 25.9877L146.087 24.2502C145.06 23.3739 143.791 22.9206 142.31 22.9206C139.605 22.9206 137.505 24.5373 137.505 26.9094C137.505 28.4656 138.744 29.1908 140.421 29.7045L140.98 29.8707C142.038 30.188 142.703 30.4448 142.703 31.019C142.703 31.7895 141.781 32.2126 140.618 32.2126C139.726 32.2126 138.699 32.0313 137.717 31.2154L136.568 32.8925C137.505 33.8293 138.895 34.4034 140.557 34.4034Z" fill="#F5C20A"/>
<path d="M134.012 23.5385L134.034 23.4148C134.263 22.0934 134.67 20.8106 135.244 19.6024L135.246 19.5966C135.246 19.5966 134.5 20.0301 133.899 21.3774C133.92 20.9941 133.847 20.6116 133.688 20.2637C133.558 19.9863 133.325 19.7727 133.041 19.67C132.901 19.6226 132.753 19.6022 132.605 19.6099C132.576 19.6088 132.548 19.6111 132.519 19.6167C132.539 19.6705 132.552 19.7167 132.572 19.7701C132.58 19.7871 132.584 19.8053 132.585 19.8239C132.863 20.7214 132.998 21.6579 132.988 22.5986C132.718 22.3651 132.302 22.2116 131.688 22.2383C127.931 22.4051 125.6 22.5452 124.114 20.851C123.685 22.4919 126.188 25.0996 128.228 24.4927C128.217 24.5026 128.208 24.514 128.198 24.524C130.047 23.8412 132.152 23.7803 133.969 23.7748L134.012 23.5385Z" fill="#F5C20A"/>
</svg>
