<svg width="82" height="32" viewBox="0 0 82 32" fill="none" xmlns="http://www.w3.org/2000/svg">
<g clip-path="url(#clip0_1_15)">
<path d="M10.7371 2.71661L11.1899 0.150909H3.40226L1.42516 11.3192H4.53417L5.24353 7.2745H9.09207L9.54484 4.70879H5.71138L6.05851 2.71661H10.7371Z" fill="white"/>
<path d="M16.3119 11.4702C20.3113 11.4702 23.3298 8.67811 23.3298 4.75409C23.3298 1.87145 21.3074 0 17.9871 0C13.9726 0 10.9088 2.79208 10.9088 6.68591C10.9088 9.59873 12.9614 11.4702 16.3119 11.4702ZM16.5534 8.90448C15.0139 8.90448 14.0933 7.96875 14.0933 6.47462C14.0933 4.39187 15.5874 2.56569 17.7004 2.56569C19.2248 2.56569 20.1302 3.48633 20.1302 4.96538C20.1302 7.04813 18.6663 8.90448 16.5534 8.90448Z" fill="white"/>
<path d="M34.5568 3.35049C34.5568 1.41867 33.2135 0.150909 31.0251 0.150909H25.8786L23.9015 11.3192H27.0105L27.6595 7.66689H29.048L30.5874 11.3192H34.1341L32.1721 7.09338C33.6059 6.39915 34.5568 5.11629 34.5568 3.35049ZM28.5349 2.71661H30.4214C31.0553 2.71661 31.3873 3.06373 31.3873 3.66742C31.3873 4.42205 30.9195 5.1012 29.531 5.1012H28.1122L28.5349 2.71661Z" fill="white"/>
<path d="M45.5353 0.150909H35.9969L35.544 2.71661H38.7436L37.2192 11.3192H40.3284L41.8526 2.71661H45.0824L45.5353 0.150909Z" fill="white"/>
<path d="M50.0955 11.4702C53.114 11.4702 55.3929 9.73455 55.891 6.95755L57.0983 0.150909H53.9893L52.8423 6.71608C52.616 7.96874 51.5896 8.90447 50.3671 8.90447C49.2806 8.90447 48.6316 8.30077 48.6316 7.22921C48.6316 7.04811 48.6617 6.85191 48.6919 6.65571L49.8389 0.150909H46.7299L45.5679 6.74627C45.5226 7.04811 45.4924 7.33486 45.4924 7.60653C45.4924 9.91565 47.2431 11.4702 50.0955 11.4702Z" fill="white"/>
<path d="M57.2992 11.3192H60.4082L61.4345 5.38795L66.7017 11.3192H68.5582L70.5352 0.150909H67.4262L66.415 6.0822L61.1477 0.150909H59.2764L57.2992 11.3192Z" fill="white"/>
<path d="M78.4208 11.3192H81.6959L79.0548 0.150909H76.1721L69.5617 11.3192H72.9273L73.7874 9.79492H78.1341L78.4208 11.3192ZM75.2212 7.22921L77.0172 4.02964L77.636 7.22921H75.2212Z" fill="white"/>
<path d="M2.82239 31.9655C5.00072 31.9655 6.74339 30.7532 7.08436 28.7453L9.03538 17.759H5.72052L4.82076 22.8449L3.92102 27.9308C3.78842 28.6696 3.23909 29.219 2.48142 29.219C2.02679 29.219 1.5343 29.0674 1.09864 28.6696L0 30.6964C0.587206 31.473 1.47749 31.9655 2.82239 31.9655Z" fill="#F5C20A"/>
<path d="M15.8455 31.9655C19.5392 31.9655 22.3426 29.825 22.9487 26.4155L24.4831 17.759H21.1682L19.6908 26.1692C19.3687 27.9308 17.9101 29.219 16.1296 29.219C14.5384 29.219 13.5913 28.3476 13.5913 26.8511C13.5913 26.6239 13.6292 26.3587 13.6671 26.1124L15.1446 17.759H11.8297L10.3333 26.1881C10.2765 26.5671 10.2386 26.9269 10.2386 27.2678C10.2386 30.0713 12.3601 31.9655 15.8455 31.9655Z" fill="#F5C20A"/>
<path d="M36.9181 20.5055L37.4107 17.759H27.4281L24.9467 31.7762H35.0807L35.5732 29.0295H28.773L29.2844 26.0555H35.2702L35.7627 23.309H29.777L30.2695 20.5055H36.9181Z" fill="#F5C20A"/>
<path d="M52.3439 23.6312H45.752L45.2595 26.3777H48.4986C47.9872 28.0636 46.3392 29.2191 44.3314 29.2191C42.2667 29.2191 41.0165 27.9121 41.0165 25.8474C41.0165 22.9872 43.0811 20.3163 45.9793 20.3163C47.1348 20.3163 48.1009 20.5815 48.7828 21.1687L51.1884 19.2366C50.0709 18.2137 48.4228 17.5698 46.2256 17.5698C41.2628 17.5698 37.6258 21.1877 37.6258 26.0558C37.6258 29.6358 40.0883 31.9656 44.0662 31.9656C48.2902 31.9656 51.5862 29.1623 52.1734 24.9949C52.2681 24.4647 52.306 24.0668 52.3439 23.6312Z" fill="#F5C20A"/>
<path d="M59.8481 31.9656C64.8111 31.9656 68.5428 28.3667 68.5428 23.4796C68.5428 19.8807 66.0614 17.5698 62.0077 17.5698C57.0259 17.5698 53.2566 21.1498 53.2566 26.0368C53.2566 29.6358 55.7567 31.9656 59.8481 31.9656ZM60.0947 29.2191C57.9542 29.2191 56.6661 27.8931 56.6661 25.8095C56.6661 22.8924 58.7498 20.3163 61.7047 20.3163C63.8452 20.3163 65.1143 21.6233 65.1143 23.688C65.1143 26.6051 63.0496 29.2191 60.0947 29.2191Z" fill="#F5C20A"/>
<path d="M74.2104 31.9656C77.601 31.9656 80.3856 30.0335 80.3856 27.1733C80.3856 24.9761 78.4534 23.8584 76.5213 23.2902L75.8205 23.1007C74.665 22.7598 73.8694 22.4756 73.8694 21.7749C73.8694 20.9035 75.025 20.3163 76.3698 20.3163C77.5252 20.3163 78.5482 20.6384 79.4764 21.4149L81.1433 19.2366C79.8552 18.1379 78.264 17.5698 76.4077 17.5698C73.0171 17.5698 70.3841 19.5965 70.3841 22.5705C70.3841 24.5214 71.9373 25.4307 74.0399 26.0747L74.7408 26.2831C76.0668 26.6809 76.9001 27.0028 76.9001 27.7226C76.9001 28.6887 75.7447 29.2191 74.2862 29.2191C73.1687 29.2191 71.8806 28.9918 70.6494 27.9689L69.2097 30.0714C70.3841 31.2459 72.1268 31.9656 74.2104 31.9656Z" fill="#F5C20A"/>
<path d="M66.0044 18.3443L66.0318 18.1893C66.3193 16.5327 66.8299 14.9244 67.5486 13.4096L67.5523 13.4024C67.5523 13.4024 66.6169 13.9459 65.8635 15.635C65.8892 15.1544 65.798 14.6749 65.5984 14.2387C65.4354 13.8909 65.1437 13.6232 64.787 13.4943C64.6112 13.4349 64.426 13.4094 64.241 13.4191C64.2048 13.4177 64.1688 13.4205 64.1335 13.4275C64.1581 13.495 64.1747 13.5529 64.1997 13.6199C64.2091 13.6412 64.2147 13.6641 64.2162 13.6874C64.5636 14.8126 64.7339 15.9866 64.7211 17.166C64.3819 16.8731 63.8602 16.6809 63.0904 16.7142C58.3805 16.9233 55.4585 17.0989 53.5959 14.975C53.0579 17.0321 56.1951 20.3016 58.7529 19.5407C58.7398 19.553 58.7284 19.5673 58.7154 19.5799C61.0337 18.7238 63.6734 18.6475 65.9511 18.6407L66.0044 18.3443Z" fill="#F5C20A"/>
</g>
<defs>
<clipPath id="clip0_1_15">
<rect width="81.6959" height="32" fill="white"/>
</clipPath>
</defs>
</svg>
