<svg width="77" height="77" fill="none" xmlns="http://www.w3.org/2000/svg"><path d="M34.981 3.976 4.23 33.142c-2.417 2.292-2.518 6.144-.226 8.56L33.17 72.454c2.292 2.416 6.144 2.518 8.56.226l30.752-29.166c2.416-2.292 2.517-6.144.227-8.56L43.541 4.202c-2.292-2.416-6.144-2.518-8.56-.226Zm5.99 56.906a4.535 4.535 0 0 1-6.42-.17 4.534 4.534 0 0 1 .171-6.42 4.534 4.534 0 0 1 6.42.17 4.534 4.534 0 0 1-.171 6.42Zm-18.75-19.769a4.534 4.534 0 0 1-6.419-.17 4.534 4.534 0 0 1 .17-6.42 4.534 4.534 0 0 1 6.419.17 4.534 4.534 0 0 1-.17 6.42Zm19.26.51a4.534 4.534 0 0 1-6.42-.17 4.534 4.534 0 0 1 .17-6.42 4.534 4.534 0 0 1 6.42.17 4.534 4.534 0 0 1-.17 6.42Zm19.26.51a4.536 4.536 0 0 1-6.42-.17 4.535 4.535 0 0 1 .17-6.42 4.535 4.535 0 0 1 6.419.17 4.534 4.534 0 0 1-.168 6.42Zm-18.75-19.77a4.535 4.535 0 0 1-6.42-.17 4.535 4.535 0 0 1 .17-6.42 4.536 4.536 0 0 1 6.42.17 4.535 4.535 0 0 1-.17 6.42Z" fill="url(#a)" style="mix-blend-mode:overlay"/><defs><linearGradient id="a" x1="-78.609" y1="-35.694" x2="50.3" y2="98.146" gradientUnits="userSpaceOnUse"><stop stop-color="#fff"/><stop offset="1" stop-color="#EBFFF7" stop-opacity="0"/></linearGradient></defs></svg>