<svg xmlns="http://www.w3.org/2000/svg" width="24px" height="24px" viewBox="0 0 24 24" fill="#fff"><path fill-rule="evenodd" d="M15 11V7a3 3 0 1 0-6 0v4a3 3 0 1 0 6 0zm-3-9a5 5 0 0 0-5 5v4a5 5 0 1 0 10 0V7a5 5 0 0 0-5-5z"></path><path d="M6.181 14c-.765 0-1.277.775-.855 1.413C6.758 17.575 9.213 19 12 19s5.242-1.425 6.674-3.587c.422-.637-.09-1.413-.855-1.413-.385 0-.734.21-.96.521a5.99 5.99 0 0 1-9.717 0c-.226-.311-.576-.521-.96-.521z"></path><g fill-rule="evenodd"><path d="M12 18a1 1 0 0 1 1 1v2a1 1 0 1 1-2 0v-2a1 1 0 0 1 1-1z"></path><path d="M8 21a1 1 0 0 1 1-1h6a1 1 0 1 1 0 2H9a1 1 0 0 1-1-1z"></path></g></svg>