<svg xmlns="http://www.w3.org/2000/svg" width="24px" height="24px" viewBox="0 0 24 24" fill="#4076d4"><path d="M12 2C6.5 2 2 6.5 2 12s4.5 10 10 10 10-4.5 10-10S17.5 2 12 2zM7.6 18.7C8.4 17 10.1 16 12 16s3.6 1 4.4 2.7c-1.2.8-2.8 1.3-4.4 1.3s-3.2-.5-4.4-1.3zm10.3-1.4c-1.3-2-3.5-3.3-5.9-3.3s-4.7 1.3-5.9 3.3C4.8 15.9 4 14.1 4 12c0-4.4 3.6-8 8-8s8 3.6 8 8c0 2.1-.8 3.9-2.1 5.3zM12 6c-1.9 0-3.5 1.6-3.5 3.5S10.1 13 12 13s3.5-1.6 3.5-3.5S13.9 6 12 6zm0 5a1.54 1.54 0 0 1-1.5-1.5A1.54 1.54 0 0 1 12 8a1.54 1.54 0 0 1 1.5 1.5A1.54 1.54 0 0 1 12 11z"></path></svg>