<svg xmlns="http://www.w3.org/2000/svg" width="24px" height="24px" fill="#fff" viewBox="0 0 24 24"><path d="M19 20H5c-1.7 0-3-1.3-3-3V7c0-1.7 1.3-3 3-3h14c1.7 0 3 1.3 3 3v10c0 1.7-1.3 3-3 3zM5 6a.94.94 0 0 0-1 1v10a.94.94 0 0 0 1 1h14a.94.94 0 0 0 1-1V7a.94.94 0 0 0-1-1H5zm12.2 8.5V9.6c0-.4-.1-.5-.3-.6s-.4-.1-.7.1l-1.4 1.1c-.3.2-.4.6-.2.9s.619.381.9.1l.4-.4v3.7c0 .5.3.7.6.7.4 0 .7-.2.7-.7zm-7.4 0c0-.3-.2-.6-.7-.6H7.3c.9-.8 2.4-1.7 2.4-3 0-1.1-.9-2-2.1-2-.8 0-1.6.5-1.9 1.3-.1.3 0 .7.3.8s.7 0 .8-.3.4-.5.7-.5c.6 0 .9.3.9.8s-.8 1.1-1.4 1.6c-.8.6-1.5 1.3-1.5 2 0 .3.2.6.7.6h2.9c.5 0 .7-.3.7-.7zm3-4.5c0 .4-.3.8-.8.8s-.8-.4-.8-.8.3-.8.8-.8.8.4.8.8zm0 4c0 .4-.3.8-.8.8s-.8-.4-.8-.8.3-.8.8-.8.8.4.8.8z"></path></svg>